<svg xmlns="http://www.w3.org/2000/svg" xml:space="preserve" viewBox="0 0 56.964 56.964">
  <path fill="#e6e6e6" stroke="#e64c3c" stroke-linecap="round" stroke-linejoin="round" stroke-miterlimit="10" stroke-width="2" d="m53.527 12.23-6.318-4.86c-11.04-8.492-26.413-8.492-37.453 0l-6.318 4.86c-.602.463-.955 1.18-.955 1.939v23.795l8.56 2.334c1.62.442 3.291.666 4.969.666h1.328L16.482 35h25l-.857 5.964h1.085c1.838 0 3.666-.268 5.427-.797l7.345-2.203V14.169c0-.76-.353-1.476-.955-1.939z"/>
  <path fill="#fff" stroke="#e64c3c" stroke-miterlimit="10" stroke-width="2" d="M40.482 31h-24V16.396c0-.771.625-1.396 1.396-1.396h21.207c.771 0 1.396.625 1.396 1.396V31z"/>
  <path fill="none" stroke="#bdc3c7" stroke-linecap="round" stroke-linejoin="round" stroke-miterlimit="10" stroke-width="2" d="m38.482 55.964-4.472-4.269-4.528 4.055-4.645-4.398c-.196-.195-.513-.195-.709 0l-4.645 4.612-3-20.964h25l-3.001 20.964zm3-20.964-22 20.964m-3-20.964 22 20.964"/>
  <path fill="none" stroke="#bdc3c7" stroke-miterlimit="10" stroke-width="2" d="m29.482 34.964-11 10m10-10 11 10"/>
  <path fill="none" stroke="#bdc3c7" stroke-linecap="round" stroke-linejoin="round" stroke-miterlimit="10" stroke-width="2" d="m29.482 55.75-11-9.786m11 9.786 10-9.786"/>
  <path fill="#38454f" d="M42.982 35h-29c-1.375 0-2.5-1.161-2.5-2.536S12.607 30 13.982 30h29c1.375 0 2.5 1.089 2.5 2.464S44.357 35 42.982 35z"/>
</svg>
