<svg xmlns="http://www.w3.org/2000/svg" viewBox="0 0 256 256">
  <path fill="#fefefe" d="M106.33 255.08c-49.9968-9.09-90.1728-47.7-101.184-97.3-3.18432-14.1-3.43232-42.7-.493024-56.1 5.3568-24.4 16.5664-45.4 33.3312-62.5 17.7568-18.2 37.0016-29.1 62.992-35.8 7.25152-1.86 11.2096-2.16 28.272-2.16s21.0304.302 28.272 2.16c50.096 12.8 85.6096 49.1 96.4224 98.3 1.91456 8.78 2.29152 13.3 2.24192 27.5-.0443424 14.7-.404736 18.5-2.6288 28.1-8.7296 37.6-33.232 69.1-67.0592 86.3-8.7296 4.44-24.8 9.7-35.216 11.5-11.0112 1.93-33.9264 1.89-44.7392-.0681z"/>
  <path fill="#fcfbfb" d="M119.226 227.08c-22.5184-5.68-42.5568-26.6-62.0992-64.7-27.8752-54.4-31.4464-104-8.60064-119 7.82688-4.88 19.2448-4.7 29.3632.443 5.61472 2.86 7.21184 4.66 10.416 11.7 3.93824 8.67 5.47584 18.6 6.14048 39.6l.613056 19.3 3.15456-7.29c1.736-4.01 5.23776-10.9 7.7872-15.4 2.54944-4.45 4.64256-9.31 4.64256-10.8 0-1.48-1.11104-5.35-2.48-8.62-2.53952-6.08-2.94624-9.38-1.86496-14.9.619008-3.12.625952-3.13 7.192-3.13l6.56704-.0038 4.09696-5.34c4.62272-6.04 13.5904-13.4 21.328-17.4 4.48384-2.34 6.3984-2.72 13.6896-2.72 7.51936 0 9.00736.319 13.2928 2.84 2.63872 1.56 4.58304 3.05 4.32512 3.31s-3.04544-.286-6.20992-1.21c-7.87648-2.31-15.7728-1.48-23.808 2.5-19.0464 9.44-38.3904 45-30.8512 56.6 1.02176 1.58 3.51168 2.99 7.10272 4.04 5.83296 1.71 8.65024 1.26 3.77952-.608-10.2176-3.91-8.10464-13.2 6.8448-30.1l8.52128-9.63-.564448-5.51c-.51088-4.99-.354144-5.63 1.66656-6.72 2.7776-1.5 7.31104-.653 10.6144 1.99 3.13472 2.49 12.896 2.72 21.1296.509 2.99584-.812 8.2336-1.48 11.6064-1.49 5.77344-.0111 6.21984.155 6.80512 2.49.34224 1.37.370016 3.16.061504 3.97s.374976 3.6 1.51776 6.21c2.56928 5.86 3.53152 19.7 1.89472 27.3-.632896 2.98-2.91648 9.08-5.07904 13.6-5.4064 11.2-5.61472 12.9-2.50976 20.3 5.32704 12.7 9.21568 37 8.21376 51.1-.296608 4.15-1.72608 13.4-3.18432 20.5-2.7776 13.7-2.55936 18.5.992 21.5.815424.683 1.488 2.68 1.488 4.44 0 3.72-2.7776 6.71-7.8368 8.41-4.74176 1.6-14.9792 1.42-19.9392-.361-5.92224-2.11-10.8128-1.87-14.88.723-3.05536 1.95-5.0096 2.24-16.368 2.46-8.75936.166-14.7808-.224-18.7488-1.22zm-15.0784-35.2c-8.81888-26.1-6.08096-55.4 8.02528-85.9l4.24576-9.16-4.54336-3.98-3.97792 8.66c-16.1696 35.2-18.6496 66.2-7.06304 89.3 3.06528 6.12 5.84288 10.9 6.35872 10.9.136896 0-1.23008-4.39-3.03552-9.75zm75.888-87.5 2.0832-5.25-.452352 4.37c-.256928 2.49-.0791616 4 .412672 3.5.811456-.818 5.92224-13.7 5.92224-15 0-.311-1.34912.582-3.00576 1.98-3.06528 2.6-8.57088 4.61-12.6976 4.62-2.0832.0051-2.22208.329-1.64672 3.76 1.13088 6.77 1.42848 7.25 4.42432 7.25 2.49984 0 3.09504-.629 4.93024-5.25z"/>
  <path fill="#fbfbfb" d="M119.226 227.08c-22.5184-5.68-42.5568-26.6-62.0992-64.7-21.328-41.7-28.6688-80.3-19.84-104 6.3488-17.1 23.312-23 40.672-14.2 5.61472 2.86 7.21184 4.66 10.416 11.7 3.93824 8.67 5.47584 18.6 6.14048 39.6l.613056 19.3 3.15456-7.29c1.736-4.01 5.23776-10.9 7.7872-15.4 2.54944-4.45 4.64256-9.31 4.64256-10.8 0-1.48-1.11104-5.35-2.48-8.62-2.53952-6.08-2.94624-9.38-1.86496-14.9.619008-3.12.625952-3.13 7.192-3.13l6.56704-.0038 4.09696-5.34c4.62272-6.04 13.5904-13.4 21.328-17.4 4.48384-2.34 6.3984-2.72 13.6896-2.72 7.51936 0 9.00736.319 13.2928 2.84 2.63872 1.56 4.58304 3.05 4.32512 3.31s-3.04544-.286-6.20992-1.21c-7.87648-2.31-15.7728-1.48-23.808 2.5-19.0464 9.44-38.3904 45-30.8512 56.6 1.02176 1.58 3.51168 2.99 7.10272 4.04 5.83296 1.71 8.65024 1.26 3.77952-.608-10.2176-3.91-8.10464-13.2 6.8448-30.1l8.52128-9.63-.564448-5.51c-.51088-4.99-.354144-5.63 1.66656-6.72 2.7776-1.5 7.31104-.653 10.6144 1.99 3.13472 2.49 12.896 2.72 21.1296.509 2.99584-.812 8.2336-1.48 11.6064-1.49 5.77344-.0111 6.21984.155 6.80512 2.49.34224 1.37.370016 3.16.061504 3.97s.374976 3.6 1.51776 6.21c2.56928 5.86 3.53152 19.7 1.89472 27.3-.632896 2.98-2.91648 9.08-5.07904 13.6-5.4064 11.2-5.61472 12.9-2.50976 20.3 5.32704 12.7 9.21568 37 8.21376 51.1-.296608 4.15-1.72608 13.4-3.18432 20.5-2.7776 13.7-2.55936 18.5.992 21.5.815424.683 1.488 2.68 1.488 4.44 0 3.72-2.7776 6.71-7.8368 8.41-4.74176 1.6-14.9792 1.42-19.9392-.361-5.92224-2.11-10.8128-1.87-14.88.723-3.05536 1.95-5.0096 2.24-16.368 2.46-8.75936.166-14.7808-.224-18.7488-1.22zm-15.0784-35.2c-8.81888-26.1-6.08096-55.4 8.02528-85.9l4.24576-9.16-4.54336-3.98-3.97792 8.66c-16.1696 35.2-18.6496 66.2-7.06304 89.3 3.06528 6.12 5.84288 10.9 6.35872 10.9.136896 0-1.23008-4.39-3.03552-9.75zm75.888-87.5 2.0832-5.25-.452352 4.37c-.256928 2.49-.0791616 4 .412672 3.5.811456-.818 5.92224-13.7 5.92224-15 0-.311-1.34912.582-3.00576 1.98-3.06528 2.6-8.57088 4.61-12.6976 4.62-2.0832.0051-2.22208.329-1.64672 3.76 1.13088 6.77 1.42848 7.25 4.42432 7.25 2.49984 0 3.09504-.629 4.93024-5.25z"/>
  <path fill="#a08470" d="M119.226 227.08c-12.3008-3.11-26.8832-13.1-37.2992-25.6-17.4592-20.9-36.1088-58.2-43.8464-87.4-2.7776-10.6-3.21408-14-3.63072-28.7-.417632-14.9-.245024-17.4 1.59712-23.6 2.49984-8.31 5.26752-12.6 10.8128-16.9 8.02528-6.17 19.9392-6.5 31.0496-.859 5.61472 2.86 7.21184 4.66 10.416 11.7 3.93824 8.67 5.47584 18.6 6.14048 39.6l.613056 19.3 3.15456-7.29c1.736-4.01 5.23776-10.9 7.7872-15.4 2.54944-4.45 4.64256-9.31 4.64256-10.8 0-1.48-1.11104-5.35-2.48-8.62-2.53952-6.08-2.94624-9.38-1.86496-14.9.619008-3.12.625952-3.13 7.192-3.13l6.56704-.0038 4.09696-5.34c4.62272-6.04 13.5904-13.4 21.328-17.4 4.48384-2.34 6.3984-2.72 13.6896-2.72 7.51936 0 9.00736.319 13.2928 2.84 2.63872 1.56 4.58304 3.05 4.32512 3.31s-3.04544-.286-6.20992-1.21c-7.87648-2.31-15.7728-1.48-23.808 2.5-19.0464 9.44-38.3904 45-30.8512 56.6 1.02176 1.58 3.51168 2.99 7.10272 4.04 5.83296 1.71 8.65024 1.26 3.77952-.608-10.2176-3.91-8.10464-13.2 6.8448-30.1l8.52128-9.63-.564448-5.51c-.51088-4.99-.354144-5.63 1.66656-6.72 2.7776-1.5 7.31104-.653 10.6144 1.99 3.13472 2.49 12.896 2.72 21.1296.509 2.99584-.812 8.2336-1.48 11.6064-1.49 5.77344-.0111 6.21984.155 6.80512 2.49.34224 1.37.370016 3.16.061504 3.97s.374976 3.6 1.51776 6.21c2.56928 5.86 3.53152 19.7 1.89472 27.3-.632896 2.98-2.91648 9.08-5.07904 13.6-5.4064 11.2-5.61472 12.9-2.50976 20.3 5.32704 12.7 9.21568 37 8.21376 51.1-.296608 4.15-1.72608 13.4-3.18432 20.5-2.7776 13.7-2.55936 18.5.992 21.5.815424.683 1.488 2.68 1.488 4.44 0 3.72-2.7776 6.71-7.8368 8.41-4.74176 1.6-14.9792 1.42-19.9392-.361-5.92224-2.11-10.8128-1.87-14.88.723-3.05536 1.95-5.0096 2.24-16.368 2.46-8.75936.166-14.7808-.224-18.7488-1.22zm-15.0784-35.2c-8.81888-26.1-6.08096-55.4 8.02528-85.9l4.24576-9.16-4.54336-3.98-3.97792 8.66c-16.1696 35.2-18.6496 66.2-7.06304 89.3 3.06528 6.12 5.84288 10.9 6.35872 10.9.136896 0-1.23008-4.39-3.03552-9.75zm75.888-87.5 2.0832-5.25-.452352 4.37c-.256928 2.49-.0791616 4 .412672 3.5.811456-.818 5.92224-13.7 5.92224-15 0-.311-1.34912.582-3.00576 1.98-3.06528 2.6-8.57088 4.61-12.6976 4.62-2.0832.0051-2.22208.329-1.64672 3.76 1.13088 6.77 1.42848 7.25 4.42432 7.25 2.49984 0 3.09504-.629 4.93024-5.25z"/>
  <path fill="#45352f" d="M119.226 227.08c-22.2208-6.14-42.5568-28.1-61.7024-66.5-16.1696-32.4-23.0144-58.2-21.9232-81.9.898752-19.4 6.32896-30.1 17.7568-35.1 6.40832-2.78 15.5744-2.41 23.1136.932 8.75936 3.86 11.904 8.32 15.5744 21.9 1.70624 6.37 2.1328 11.7 2.54944 31.2l.502944 23.5 1.70624-5c1.87488-5.48 8.8288-19.8 12.4-25.4 3.34304-5.34 3.6208-10.6.868992-16.6-1.46816-3.18-2.31136-6.88-2.31136-10.2-.0150784-8.04.246016-8.32 7.7872-8.39l6.58688-.057 3.72992-4.94c4.58304-6.06 13.1936-13 21.0304-17 5.0096-2.54 6.96384-2.97 13.392-2.93 6.14048.0369 8.35264.508 12.0032 2.56 2.46016 1.38 3.5712 2.23 2.48 1.88-14.0864-4.48-26.4864-1.15-38.4896 10.4-14.88 14.2-24.9984 38.4-20.0384 47.9 1.89472 3.7 1.46816 4.06-1.27968 1.08l-1.94432-2.11-1.9344 3.86c-4.32512 8.62-11.2096 27.5-13.7888 37.9-2.36096 9.52-2.728 13-2.71808 25.5.0182528 13 .29264 15.3 2.66848 22.5 3.18432 9.64 11.2096 23.3 15.1776 25.7.566432.347-.0583296-3.5-1.3888-8.55-2.8768-10.9-3.53152-29.6-1.25984-36.1l1.35904-3.88 3.05536 5.38c5.22784 9.22 20.336 22.8 27.28 24.6 5.17824 1.31 5.0592-5.51-.366048-20.2-4.68224-12.7-5.61472-17.5-5.6544-29.5-.0361088-11.9 1.4384-17.3 8.17408-29.6 4.60288-8.45 4.93024-12.1 1.99392-21.5-1.08128-3.49-1.97408-6.92-1.984-7.62-.006944-.705 2.3312.483 5.19808 2.64 7.32096 5.52 16.9632 10.2 22.4192 10.8 4.04736.483 5.07904.205 7.79712-2.1 3.38272-2.87 7.21184-11.7 7.21184-16.6 0-1.63.42656-2.96.94736-2.96 1.2896 0 2.32128 6.08 1.86496 10.9l-.377952 3.99 2.74784-2.66c1.51776-1.46 3.65056-4.94 4.7616-7.72l2.00384-5.06-.328352 8.53c-.296608 7.72-.770784 9.48-4.97984 18.6-2.84704 6.14-4.65248 11.4-4.65248 13.6 0 1.99 1.3392 6.99 2.976 11.1 6.97376 17.6 8.8288 44.7 4.464 65.1-3.30336 15.4-3.26368 20.5.160704 24.6 2.16256 2.59 2.48 3.63 1.736 5.72-1.37888 3.91-5.32704 6.27-12.5984 7.52-5.96192 1.03-7.28128.926-13.392-1.06-8.62048-2.8-10.6144-2.76-16.2688.299-4.32512 2.32-5.59488 2.49-17.856 2.41-7.7376-.0524-15.1776-.649-18.0544-1.44zm59.1232-117c.855104-.688 2.07328-2.15 2.71808-3.25 1.10112-1.9 1.13088-1.89.552544.25-.91264 3.36 1.21024 2.74 3.0752-.913 2.29152-4.47 5.47584-14.1 4.87072-14.7-.279744-.282-1.736.663-3.224 2.1-3.33312 3.2-7.17216 4.74-11.8048 4.74h-3.53152l.473184 4.97c.682496 7.16 3.2736 9.7 6.90432 6.78zm-1.66656-45.1c-10.0192-4.75-12.4-11.4-5.456-14.8 4.53344-2.23 16.6656-4.31 20.1376-3.43 2.3808.603 2.70816 1.16 2.70816 4.7 0 6.88-6.1504 16-10.8128 15.9-.880896-.005-3.83904-1.07-6.56704-2.37zm-33.8272-5.87c1.17056-1.82 1.24-3.04.334304-6.42-2.07328-7.75 2.69824-9.47 12.4992-4.5l5.56512 2.83-5.23776 1.66c-2.8768.915-7.06304 3.24-9.29504 5.17-4.70208 4.06-5.89248 4.45-3.83904 1.26z"/>
</svg>
