<svg xmlns="http://www.w3.org/2000/svg" xmlns:xlink="http://www.w3.org/1999/xlink" xml:space="preserve" viewBox="0 0 480 480">
  <defs>
    <path id="a" fill="#262626" d="M84.387 164.497c0 17.515-14.199 31.714-31.714 31.714s-31.714-14.199-31.714-31.714 14.199-31.714 31.714-31.714 31.714 14.199 31.714 31.714z"/>
    <path id="b" fill="#ea6153" d="M47.506 140.775c-1.48 0-2.671 1.191-2.671 2.671v8.623h.011c-.04.355.063.711.287.989l6.633 8.205c.464.573 1.305.662 1.878.198.081-.066.155-.141.219-.224l6.372-8.297c.191-.249.288-.558.274-.871h.003v-8.623c0-1.48-1.191-2.671-2.671-2.671H47.506z"/>
    <path id="c" fill="#ea6153" d="M47.506 188.218c-1.48 0-2.671-1.191-2.671-2.671v-8.623h.011c-.04-.355.063-.711.287-.989l6.633-8.205c.464-.573 1.305-.662 1.878-.198.081.066.155.141.219.224l6.372 8.297c.191.249.288.558.274.871h.003v8.623c0 1.48-1.191 2.671-2.671 2.671H47.506z"/>
    <path id="d" fill="#ea6153" d="M76.395 159.33c0-1.48-1.191-2.671-2.671-2.671h-8.623v.011c-.355-.04-.711.063-.989.287l-8.205 6.633c-.573.464-.662 1.305-.198 1.878.066.081.141.155.224.219l8.297 6.372c.249.191.558.288.871.274v.003h8.623c1.48 0 2.671-1.191 2.671-2.671V159.33z"/>
    <path id="e" fill="#ea6153" d="M28.952 159.33c0-1.48 1.191-2.671 2.671-2.671h8.623v.011c.355-.04.711.063.989.287l8.205 6.633c.573.464.662 1.305.198 1.878-.066.081-.141.155-.224.219l-8.297 6.372c-.249.191-.558.288-.871.274v.003h-8.623c-1.48 0-2.671-1.191-2.671-2.671V159.33z"/>
  </defs>
  <path fill="#252426" d="M20.553 295.246c-6.132-1.966-12.74-5.286-15.986-10.848-7.027-12.039-4.005-27.751-3.426-41.678.625-15.036 4.189-29.835 7.422-44.533 4.325-19.66 7.785-39.852 15.986-58.235 3.871-8.678 8.289-17.694 15.415-23.979 3.639-3.209 8.351-5.452 13.132-6.28 5.467-.947 11.358-.226 16.557 1.713 4.353 1.623 11.419 7.993 11.419 7.993l128.461-1.713s4.25-3.963 6.851-5.138c4.252-1.921 9.056-3.277 13.702-2.855 5.526.503 10.952 2.985 15.415 6.28 4.352 3.213 7.391 7.985 10.277 12.561 5.723 9.073 10.22 18.972 13.702 29.118 7.031 20.481 10.907 41.983 14.273 63.374 1.634 10.383 2.815 20.891 2.855 31.401.026 6.875-.02 13.89-1.713 20.554-1.28 5.038-2.862 10.358-6.28 14.273-4.551 5.213-10.806 10.245-17.699 10.848-6.724.588-13.463-3.343-18.841-7.422-6.278-4.761-10.539-11.903-14.273-18.841-4.879-9.063-6.677-19.475-10.277-29.118-2.361-6.324-3.059-13.69-7.422-18.841-1.435-1.693-3.492-3.33-5.709-3.426-48.772-2.106-82.209-.28-122.96-.294-3.241-.001-5.487 3.751-7.267 6.459-7.549 11.487-7.444 26.552-12.919 39.16-3.238 7.457-6.284 15.34-11.708 21.397-3.288 3.671-7.394 7.053-12.111 8.478-5.386 1.627-11.517 1.31-16.876-.408z"/>
  <path fill="#1f1f20" d="M278.454 191.266c-13.478 2.81-29.064 10.344-30.08 12.873l-3.641 9.063c-3.842 2.018-6.303 3.482-6.303 3.482s-8.839 22.071-15.91 41.869c1.425 4.576 3.019 9.078 5.283 13.285 3.735 6.938 7.996 14.079 14.273 18.84 5.378 4.079 12.116 8.012 18.84 7.424 6.893-.603 13.148-5.635 17.699-10.848 3.419-3.916 5.001-9.236 6.281-14.273 1.693-6.663 1.739-13.68 1.713-20.555-.039-10.51-1.222-21.018-2.855-31.4-1.563-9.935-3.252-19.891-5.3-29.76z"/>
  <path fill="#201e20" d="M123.085 203.611c0 15.135-12.27 27.405-27.405 27.405s-27.405-12.27-27.405-27.405c0-15.135 12.27-27.405 27.405-27.405s27.405 12.27 27.405 27.405z"/>
  <path fill="gray" d="M116.583 203.611c0 11.544-9.358 20.902-20.902 20.902s-20.902-9.358-20.902-20.902 9.358-20.902 20.902-20.902 20.902 9.358 20.902 20.902z"/>
  <path fill="#d2dcdc" d="M111.422 203.611c0 8.694-7.048 15.741-15.741 15.741-8.694 0-15.741-7.048-15.741-15.741 0-8.694 7.048-15.741 15.741-15.741s15.741 7.047 15.741 15.741z"/>
  <path fill="gray" d="M.595 251.334c-.843 11.514-1.636 23.455 3.973 33.064 3.246 5.562 9.854 8.882 15.986 10.848 5.359 1.718 11.49 2.035 16.877.408 4.718-1.425 8.824-4.808 12.111-8.479 5.424-6.056 8.469-13.939 11.707-21.396.159-.365.298-.738.447-1.107-6.23 1.396-12.655 2.522-17.449 2.598-7.446.118-14.883-1.74-21.98-3.996-5.802-1.844-11.569-4.217-16.557-7.707-1.563-1.094-3.318-2.579-5.115-4.233z"/>
  <path fill="#181818" d="m190.483 117.94-94.354 1.258v40.016c0 2.236 1.842 4.078 4.078 4.078h86.197c2.236 0 4.078-1.842 4.078-4.078V117.94z"/>
  <path fill="#2c2a2d" d="m187.767 117.977-88.916 1.186v40.051c0 .777.581 1.359 1.357 1.359h86.197c.777 0 1.361-.583 1.361-1.359v-41.237z"/>
  <path fill="#201e20" d="M219.524 203.611c0 15.135-12.27 27.405-27.405 27.405s-27.405-12.27-27.405-27.405c0-15.135 12.27-27.405 27.405-27.405s27.405 12.27 27.405 27.405z"/>
  <path fill="gray" d="M213.022 203.611c0 11.544-9.358 20.902-20.902 20.902s-20.902-9.358-20.902-20.902 9.358-20.902 20.902-20.902 20.902 9.358 20.902 20.902z"/>
  <path fill="#d2dcdc" d="M207.861 203.611c0 8.694-7.048 15.741-15.741 15.741-8.694 0-15.741-7.048-15.741-15.741 0-8.694 7.048-15.741 15.741-15.741s15.741 7.047 15.741 15.741z"/>
  <path fill="#201e20" d="M90.513 164.497c0 20.898-16.941 37.839-37.839 37.839s-37.839-16.941-37.839-37.839 16.941-37.839 37.839-37.839c20.897-.001 37.839 16.941 37.839 37.839z"/>
  <use xlink:href="#a"/>
  <use xlink:href="#b"/>
  <path fill="#6a6b6c" d="m56.002 139.334-6.665-.04c-.378-.002-.683-.264-.68-.584.001-.132.055-.259.152-.362l3.399-3.568c.238-.249.669-.287.963-.086.042.029.079.061.112.098l3.265 3.608c.23.254.174.619-.126.814-.12.079-.268.122-.42.12z"/>
  <use xlink:href="#c"/>
  <path fill="#6a6b6c" d="m56.002 189.659-6.665.04c-.378.002-.683.264-.68.584.001.132.055.259.152.362l3.399 3.568c.238.249.669.287.963.086.042-.029.079-.061.112-.098l3.265-3.608c.23-.254.174-.619-.126-.814-.12-.079-.268-.121-.42-.12z"/>
  <use xlink:href="#d"/>
  <path fill="#6a6b6c" d="m77.836 167.825.04-6.665c.002-.378.264-.682.584-.68.132.001.259.055.362.152l3.568 3.399c.249.238.288.669.086.963-.029.042-.061.079-.098.112l-3.608 3.266c-.254.23-.619.174-.814-.126-.079-.121-.122-.269-.12-.421z"/>
  <use xlink:href="#e"/>
  <path fill="#6a6b6c" d="m27.511 167.825-.04-6.665c-.002-.378-.264-.682-.584-.68-.132.001-.259.055-.362.152l-3.568 3.399c-.249.238-.288.669-.086.963.029.042.061.079.098.112l3.608 3.266c.254.23.619.174.814-.126.079-.121.121-.269.12-.421z"/>
  <path fill="none" d="M90.513 164.497c0 20.898-16.941 37.839-37.839 37.839s-37.839-16.941-37.839-37.839 16.941-37.839 37.839-37.839c20.897-.001 37.839 16.941 37.839 37.839z"/>
  <use xlink:href="#a"/>
  <use xlink:href="#b"/>
  <path fill="#d2dcdc" d="m56.002 139.334-6.665-.04c-.378-.002-.683-.264-.68-.584.001-.132.055-.259.152-.362l3.399-3.568c.238-.249.669-.287.963-.086.042.029.079.061.112.098l3.265 3.608c.23.254.174.619-.126.814-.12.079-.268.122-.42.12z"/>
  <use xlink:href="#c"/>
  <path fill="#d2dcdc" d="m56.002 189.659-6.665.04c-.378.002-.683.264-.68.584.001.132.055.259.152.362l3.399 3.568c.238.249.669.287.963.086.042-.029.079-.061.112-.098l3.265-3.608c.23-.254.174-.619-.126-.814-.12-.079-.268-.121-.42-.12z"/>
  <use xlink:href="#d"/>
  <path fill="#d2dcdc" d="m77.836 167.825.04-6.665c.002-.378.264-.682.584-.68.132.001.259.055.362.152l3.568 3.399c.249.238.288.669.086.963-.029.042-.061.079-.098.112l-3.608 3.266c-.254.23-.619.174-.814-.126-.079-.121-.122-.269-.12-.421z"/>
  <use xlink:href="#e"/>
  <path fill="#d2dcdc" d="m27.511 167.825-.04-6.665c-.002-.378-.264-.682-.584-.68-.132.001-.259.055-.362.152l-3.568 3.399c-.249.238-.288.669-.086.963.029.042.061.079.098.112l3.608 3.266c.254.23.619.174.814-.126.079-.121.121-.269.12-.421z"/>
  <path fill="#201e20" d="M271.376 164.497c0 20.898-16.941 37.839-37.839 37.839s-37.839-16.941-37.839-37.839 16.941-37.839 37.839-37.839c20.898-.001 37.839 16.941 37.839 37.839z"/>
  <path fill="#262626" d="M265.654 164.497c0 17.515-14.199 31.714-31.714 31.714s-31.714-14.199-31.714-31.714 14.199-31.714 31.714-31.714 31.714 14.199 31.714 31.714z"/>
  <path fill="#d2dcdc" d="M242.996 145.085c0 5.001-4.054 9.056-9.056 9.056-5.001 0-9.056-4.054-9.056-9.056 0-5.001 4.054-9.056 9.056-9.056 5.002 0 9.056 4.054 9.056 9.056zm0 38.823c0 5.001-4.054 9.056-9.056 9.056-5.001 0-9.056-4.054-9.056-9.056 0-5.001 4.054-9.056 9.056-9.056 5.002.001 9.056 4.055 9.056 9.056z"/>
  <path fill="#ea6153" d="M253.352 155.441c-5.001 0-9.056 4.054-9.056 9.056s4.054 9.056 9.056 9.056 9.056-4.054 9.056-9.056-4.054-9.056-9.056-9.056z"/>
  <path fill="#d2dcdc" d="M214.528 155.441c-5.001 0-9.056 4.054-9.056 9.056 0 5.001 4.054 9.056 9.056 9.056 5.001 0 9.056-4.054 9.056-9.056 0-5.002-4.054-9.056-9.056-9.056z"/>
  <path fill="#fff" d="M259.114 164.497c0 3.178-2.583 5.762-5.762 5.762s-5.764-2.583-5.764-5.762 2.585-5.764 5.764-5.764 5.762 2.586 5.762 5.764zm-.679 0c0-2.811-2.271-5.084-5.082-5.084s-5.082 2.273-5.082 5.084 2.271 5.082 5.082 5.082 5.082-2.271 5.082-5.082z"/>
  <path fill="#3b3c3d" d="m233.899 139.72-5.324 9.635h10.726l-5.402-9.635zm.004 1.397 4.236 7.557h-8.412l4.176-7.557zm-24.086 18.627c-.188 0-.34.152-.34.34v8.826c0 .188.152.34.34.34h9.422c.188 0 .34-.152.34-.34v-8.826c0-.188-.152-.34-.34-.34h-9.422zm.342.679h8.74v8.146h-8.74v-8.146z"/>
  <path fill="#3498db" d="M228.339 109.615c-4.09.003-8.235 1.25-11.955 2.932-1.904.86-4.662 3.19-6.02 4.391 4.174 2.852 10.511 4.513 17.215 4.514 7.295 0 14.115-1.966 18.209-5.248-.097-.074-.187-.158-.285-.23-4.464-3.296-9.89-5.778-15.416-6.281-.581-.054-1.164-.078-1.748-.078z"/>
  <path fill="#ea6153" d="M57.259 109.287c-1.402.035-2.795.168-4.162.404-4.781.828-9.492 3.072-13.131 6.281-.652.575-1.275 1.179-1.883 1.797 4.719 2.377 10.619 3.677 16.707 3.682 8.207-.008 15.945-2.366 20.951-6.385-2.037-1.509-4.287-2.991-6.088-3.662-3.899-1.453-8.187-2.222-12.394-2.117z"/>
  <g fill="#3b3c3d">
    <path d="m229.06 178.49-.482.479 10.244 10.359.482-.479-10.244-10.359z"/>
    <path d="m239.054 178.343-10.707 10.648.48.482 10.707-10.648-.48-.482z"/>
  </g>
  <path fill="#2c2a2d" d="M239.955 370.326s28.125-31.566 45.935-42.371c2.999-1.819 6.393-3.531 9.9-3.564 40.627-.383 58.942-.152 94.245-.792 4.931-.09 9.937 1.577 14.256 3.96 18.736 10.337 47.519 43.163 47.519 43.163s10.189-3.095 14.256-6.336c5.162-4.113 9.657-9.625 11.88-15.84 3.07-8.584 2.014-18.244 1.188-27.323-1.448-15.912-6.072-31.431-10.692-46.727-6.039-19.995-22.175-58.606-22.175-58.606s-30.331-18.503-45.935-14.652c-12.415 3.064-26.927 27.323-26.927 27.323l-50.687 1.188s-16.045-25.358-29.303-28.511c-16.692-3.97-49.103 15.444-49.103 15.444s-16.016 39.982-22.175 60.586c-4.31 14.418-8.962 28.966-10.296 43.955-.668 7.505-.577 15.247 1.188 22.571 1.591 6.606 3.468 13.85 8.316 18.611 4.809 4.726 18.61 7.921 18.61 7.921z"/>
  <path fill="#201e20" d="M297.98 244.404c0 11.676-9.465 21.141-21.14 21.141-11.676 0-21.141-9.465-21.141-21.141 0-11.676 9.465-21.141 21.14-21.141 11.676.001 21.141 9.466 21.141 21.141z"/>
  <path fill="#1a181a" d="M291.4 244.894c0 7.887-6.394 14.28-14.28 14.28-7.887 0-14.28-6.393-14.28-14.28s6.394-14.28 14.28-14.28c7.886 0 14.28 6.393 14.28 14.28z"/>
  <path fill="#262626" d="M291.12 244.404c0 7.887-6.394 14.28-14.28 14.28-7.887 0-14.28-6.393-14.28-14.28s6.394-14.28 14.28-14.28c7.886 0 14.28 6.393 14.28 14.28z"/>
  <path fill="#202020" d="M283.089 235.63c2.84 2.02 4.527 5.289 4.53 8.774 0 5.954-4.826 10.78-10.78 10.78-2.066-.003-4.087-.6-5.823-1.719 1.823 1.298 4.005 1.997 6.242 1.999 5.954 0 10.78-4.826 10.78-10.78-.004-3.663-1.868-7.073-4.949-9.054z"/>
  <path fill="#6a6b6c" d="M287.62 244.404c0 5.954-4.826 10.78-10.78 10.78s-10.78-4.826-10.78-10.78 4.826-10.78 10.78-10.78c5.953 0 10.78 4.826 10.78 10.78z"/>
  <path fill="#201e20" d="M333.785 288.159c0 12.674-10.274 22.947-22.947 22.947s-22.947-10.274-22.947-22.947c0-12.674 10.274-22.947 22.947-22.947 12.673-.001 22.947 10.273 22.947 22.947z"/>
  <path fill="#181618" d="M307.747 269.609c-1.507 0-2.719 1.213-2.719 2.719v10.02h-10.022c-1.507 0-2.719 1.213-2.719 2.719v7.86c0 1.507 1.213 2.719 2.719 2.719h10.022v10.022c0 1.507 1.213 2.719 2.719 2.719h7.861c1.507 0 2.719-1.213 2.719-2.719v-10.022h10.022c1.507 0 2.719-1.213 2.719-2.719v-7.86c0-1.507-1.213-2.719-2.719-2.719h-10.022v-10.02c0-1.507-1.213-2.719-2.719-2.719h-7.861z"/>
  <path fill="#3b3c3d" d="M306.906 268.768c-1.507 0-2.719 1.213-2.719 2.719v10.02h-10.02c-1.507 0-2.719 1.213-2.719 2.719v7.862c0 1.507 1.213 2.719 2.719 2.719h10.02v10.02c0 1.507 1.213 2.719 2.719 2.719h7.862c1.507 0 2.719-1.213 2.719-2.719v-10.02h10.02c1.507 0 2.719-1.213 2.719-2.719v-7.862c0-1.507-1.213-2.719-2.719-2.719h-10.02v-10.02c0-1.507-1.213-2.719-2.719-2.719h-7.862z"/>
  <path fill="#81d4ef" d="M406.342 244.264c0 5.567-4.513 10.08-10.08 10.08s-10.08-4.513-10.08-10.08 4.513-10.08 10.08-10.08 10.08 4.513 10.08 10.08z"/>
  <path fill="#ea6153" d="M442.883 244.264c0 5.567-4.513 10.08-10.08 10.08s-10.08-4.513-10.08-10.08 4.513-10.08 10.08-10.08 10.08 4.513 10.08 10.08z"/>
  <path fill="#fcd116" d="M424.823 226.624c0 5.567-4.513 10.08-10.08 10.08s-10.08-4.513-10.08-10.08 4.513-10.08 10.08-10.08c5.567-.001 10.08 4.513 10.08 10.08z"/>
  <path fill="#2ecc71" d="M424.823 263.725c0 5.567-4.513 10.08-10.08 10.08s-10.08-4.513-10.08-10.08 4.513-10.08 10.08-10.08c5.567-.001 10.08 4.512 10.08 10.08z"/>
  <path fill="#181818" d="M332.568 245.104c0 3.286-2.664 5.95-5.95 5.95s-5.95-2.664-5.95-5.95 2.664-5.95 5.95-5.95 5.95 2.664 5.95 5.95zm38.221 0c0 3.286-2.664 5.95-5.95 5.95s-5.95-2.664-5.95-5.95 2.664-5.95 5.95-5.95 5.95 2.664 5.95 5.95z"/>
  <path fill="#3b3c3d" d="M330.468 245.104c0 2.126-1.724 3.85-3.85 3.85-2.126 0-3.85-1.724-3.85-3.85s1.724-3.85 3.85-3.85 3.85 1.724 3.85 3.85zm38.221 0c0 2.126-1.724 3.85-3.85 3.85-2.126 0-3.85-1.724-3.85-3.85 0-2.126 1.724-3.85 3.85-3.85 2.126 0 3.85 1.724 3.85 3.85z"/>
  <path fill="#201e20" d="M400.957 288.159c0 11.676-9.465 21.141-21.14 21.141-11.676 0-21.141-9.465-21.141-21.141 0-11.676 9.465-21.141 21.14-21.141 11.676 0 21.141 9.465 21.141 21.141z"/>
  <path fill="#1a181a" d="M394.377 288.649c0 7.887-6.394 14.28-14.28 14.28-7.887 0-14.28-6.393-14.28-14.28s6.394-14.28 14.28-14.28c7.886-.001 14.28 6.393 14.28 14.28z"/>
  <path fill="#262626" d="M394.097 288.159c0 7.887-6.394 14.28-14.28 14.28-7.887 0-14.28-6.393-14.28-14.28s6.394-14.28 14.28-14.28c7.886-.001 14.28 6.393 14.28 14.28z"/>
  <path fill="#202020" d="M386.066 279.384c2.84 2.02 4.527 5.289 4.53 8.774 0 5.953-4.826 10.78-10.78 10.78-2.066-.003-4.087-.6-5.823-1.719 1.823 1.298 4.005 1.997 6.242 1.999 5.954 0 10.78-4.826 10.78-10.78-.004-3.663-1.868-7.073-4.949-9.054z"/>
  <path fill="#6a6b6c" d="M390.597 288.159c0 5.954-4.826 10.78-10.78 10.78s-10.78-4.826-10.78-10.78 4.826-10.78 10.78-10.78c5.953-.001 10.78 4.826 10.78 10.78z"/>
  <path fill="#1d1c1a" d="M297.457 190.551c4.899 1.081 17.057 8.387 17.057 8.387l62.961-.562s10.171-6.018 14.824-6.99c15.327-1.434 42.654 11.301 43.536 13.053l5.293 10.511-40.796-13.01-26.928 27.323-50.686 1.188-29.304-28.51-42.969 11.679 3.808-9.481c1.387-3.454 29.952-16.247 43.204-13.588z"/>
  <path fill="#171615" d="M355.733 215.346c0 5.577-4.521 10.098-10.098 10.098s-10.098-4.521-10.098-10.098 4.521-10.098 10.098-10.098 10.098 4.521 10.098 10.098z"/>
  <path fill="#fff" d="M355.287 214.703c0 5.577-4.521 10.098-10.098 10.098s-10.098-4.521-10.098-10.098 4.521-10.098 10.098-10.098 10.098 4.521 10.098 10.098z"/>
  <path fill="#c5c5c5" d="M349.958 205.807c-.393.241-2.618 1.59-4.033 1.953-.292.075-.607.094-.904.043-1.653-.284-4.391-1.724-4.742-1.91-.568.317-1.105.688-1.602 1.107l.033.045 4.375 3.449s-2.371 2.504-3.281 3.955c-.754 1.201-1.466 2.485-1.768 3.871-.238 1.096 0 3.367 0 3.367s1.127-2.827 2.02-4.039c1.429-1.941 5.219-5.008 5.219-5.008s4.109 3.159 5.553 5.26c.782 1.138 1.571 3.784 1.588 3.84.007-.007.013-.014.02-.021.026-.153.516-3.06.16-4.492-.351-1.415-1.379-2.574-2.188-3.787-.744-1.116-2.441-3.197-2.441-3.197s1.45-1.856 2.441-2.439c.467-.275 1.299-.432 1.643-.492-.631-.59-1.334-1.095-2.093-1.505z"/>
</svg>
