<?xml version="1.0" encoding="iso-8859-1"?>
<!-- Generator: Adobe Illustrator 19.0.0, SVG Export Plug-In . SVG Version: 6.00 Build 0)  -->
<svg version="1.1" id="Layer_1" xmlns="http://www.w3.org/2000/svg" xmlns:xlink="http://www.w3.org/1999/xlink" x="0px" y="0px"
	 viewBox="0 0 480 480" style="enable-background:new 0 0 480 480;" xml:space="preserve">
<g transform="translate(0 -540.36)">
	<g>
		<path style="fill:#252426;" d="M20.553,835.606c-6.132-1.966-12.74-5.286-15.986-10.848c-7.027-12.039-4.005-27.751-3.426-41.678
			c0.625-15.036,4.189-29.835,7.422-44.533c4.325-19.66,7.785-39.852,15.986-58.235c3.871-8.678,8.289-17.694,15.415-23.979
			c3.639-3.209,8.351-5.452,13.132-6.28c5.467-0.947,11.358-0.226,16.557,1.713c4.353,1.623,11.419,7.993,11.419,7.993
			l128.461-1.713c0,0,4.25-3.963,6.851-5.138c4.252-1.921,9.056-3.277,13.702-2.855c5.526,0.503,10.952,2.985,15.415,6.28
			c4.352,3.213,7.391,7.985,10.277,12.561c5.723,9.073,10.22,18.972,13.702,29.118c7.031,20.481,10.907,41.983,14.273,63.374
			c1.634,10.383,2.815,20.891,2.855,31.401c0.026,6.875-0.02,13.89-1.713,20.554c-1.28,5.038-2.862,10.358-6.28,14.273
			c-4.551,5.213-10.806,10.245-17.699,10.848c-6.724,0.588-13.463-3.343-18.841-7.422c-6.278-4.761-10.539-11.903-14.273-18.841
			c-4.879-9.063-6.677-19.475-10.277-29.118c-2.361-6.324-3.059-13.69-7.422-18.841c-1.435-1.693-3.492-3.33-5.709-3.426
			c-48.772-2.106-82.209-0.28-122.96-0.294c-3.241-0.001-5.487,3.751-7.267,6.459c-7.549,11.487-7.444,26.552-12.919,39.16
			c-3.238,7.457-6.284,15.34-11.708,21.397c-3.288,3.671-7.394,7.053-12.111,8.478C32.043,837.641,25.912,837.324,20.553,835.606
			L20.553,835.606z"/>
		<path style="fill:#1F1F20;" d="M278.454,731.626c-13.478,2.81-29.064,10.344-30.08,12.873l-3.641,9.063
			c-3.842,2.018-6.303,3.482-6.303,3.482s-8.839,22.071-15.91,41.869c1.425,4.576,3.019,9.078,5.283,13.285
			c3.735,6.938,7.996,14.079,14.273,18.84c5.378,4.079,12.116,8.012,18.84,7.424c6.893-0.603,13.148-5.635,17.699-10.848
			c3.419-3.916,5.001-9.236,6.281-14.273c1.693-6.663,1.739-13.68,1.713-20.555c-0.039-10.51-1.222-21.018-2.855-31.4
			C282.191,751.451,280.502,741.495,278.454,731.626z"/>
	</g>
	<path style="fill:#201E20;" d="M123.085,743.971c0,15.135-12.27,27.405-27.405,27.405s-27.405-12.27-27.405-27.405
		c0-15.135,12.27-27.405,27.405-27.405S123.085,728.836,123.085,743.971z"/>
	<path style="fill:#808080;" d="M116.583,743.971c0,11.544-9.358,20.902-20.902,20.902s-20.902-9.358-20.902-20.902
		c0-11.544,9.358-20.902,20.902-20.902S116.583,732.427,116.583,743.971z"/>
	<path style="fill:#D2DCDC;" d="M111.422,743.971c0,8.694-7.048,15.741-15.741,15.741c0,0,0,0,0,0
		c-8.694,0-15.741-7.048-15.741-15.741l0,0c0-8.694,7.048-15.741,15.741-15.741c0,0,0,0,0,0
		C104.374,728.23,111.422,735.277,111.422,743.971L111.422,743.971z"/>
	<path style="fill:#808080;" d="M0.595,791.694c-0.843,11.514-1.636,23.455,3.973,33.064c3.246,5.562,9.854,8.882,15.986,10.848
		c5.359,1.718,11.49,2.035,16.877,0.408c4.718-1.425,8.824-4.808,12.111-8.479c5.424-6.056,8.469-13.939,11.707-21.396
		c0.159-0.365,0.298-0.738,0.447-1.107c-6.23,1.396-12.655,2.522-17.449,2.598c-7.446,0.118-14.883-1.74-21.98-3.996
		c-5.802-1.844-11.569-4.217-16.557-7.707C4.147,794.833,2.392,793.348,0.595,791.694z"/>
	<g shape-rendering="auto" image-rendering="auto" color-rendering="auto" color-interpolation="sRGB">
		<path style="fill:#181818;" d="M190.483,658.3l-94.354,1.258v40.016c0,2.236,1.842,4.078,4.078,4.078h86.197
			c2.236,0,4.078-1.842,4.078-4.078V658.3z"/>
		<path style="fill:#2C2A2D;" d="M187.767,658.337l-88.916,1.186v40.051c0,0.777,0.581,1.359,1.357,1.359h86.197
			c0.777,0,1.361-0.583,1.361-1.359V658.337z"/>
	</g>
	<path style="fill:#201E20;" d="M219.524,743.971c0,15.135-12.27,27.405-27.405,27.405s-27.405-12.27-27.405-27.405
		c0-15.135,12.27-27.405,27.405-27.405S219.524,728.836,219.524,743.971L219.524,743.971z"/>
	<path style="fill:#808080;" d="M213.022,743.971c0,11.544-9.358,20.902-20.902,20.902s-20.902-9.358-20.902-20.902
		c0-11.544,9.358-20.902,20.902-20.902S213.022,732.427,213.022,743.971z"/>
	<path style="fill:#D2DCDC;" d="M207.861,743.971c0,8.694-7.048,15.741-15.741,15.741h0c-8.694,0-15.741-7.048-15.741-15.741l0,0
		c0-8.694,7.048-15.741,15.741-15.741l0,0C200.813,728.23,207.861,735.277,207.861,743.971L207.861,743.971z"/>
	<path style="fill:#201E20;" d="M90.513,704.857c0,20.898-16.941,37.839-37.839,37.839c0,0,0,0,0,0
		c-20.898,0-37.839-16.941-37.839-37.839c0,0,0,0,0,0c0-20.898,16.941-37.839,37.839-37.839c0,0,0,0,0,0
		C73.571,667.017,90.513,683.959,90.513,704.857L90.513,704.857z"/>
	<path id="SVGCleanerId_0" style="fill:#262626;" d="M84.387,704.857c0,17.515-14.199,31.714-31.714,31.714h0
		c-17.515,0-31.714-14.199-31.714-31.714l0,0c0-17.515,14.199-31.714,31.714-31.714c0,0,0,0,0,0
		C70.188,673.143,84.387,687.342,84.387,704.857L84.387,704.857z"/>
	<path id="SVGCleanerId_1" style="fill:#EA6153;" d="M47.506,681.135c-1.48,0-2.671,1.191-2.671,2.671v8.623h0.011
		c-0.04,0.355,0.063,0.711,0.287,0.989l6.633,8.205c0.464,0.573,1.305,0.662,1.878,0.198c0.081-0.066,0.155-0.141,0.219-0.224
		l6.372-8.297c0.191-0.249,0.288-0.558,0.274-0.871h0.003v-8.623c0-1.48-1.191-2.671-2.671-2.671L47.506,681.135L47.506,681.135z"/>
	<path shape-rendering="auto" image-rendering="auto" color-rendering="auto" color-interpolation="sRGB" style="fill:#6A6B6C;" d="
		M56.002,679.694l-6.665-0.04c-0.378-0.002-0.683-0.264-0.68-0.584c0.001-0.132,0.055-0.259,0.152-0.362l3.399-3.568
		c0.238-0.249,0.669-0.287,0.963-0.086c0.042,0.029,0.079,0.061,0.112,0.098l3.265,3.608c0.23,0.254,0.174,0.619-0.126,0.814
		C56.302,679.653,56.154,679.696,56.002,679.694L56.002,679.694z"/>
	<path id="SVGCleanerId_2" style="fill:#EA6153;" d="M47.506,728.578c-1.48,0-2.671-1.191-2.671-2.671v-8.623h0.011
		c-0.04-0.355,0.063-0.711,0.287-0.989l6.633-8.205c0.464-0.573,1.305-0.662,1.878-0.198c0.081,0.066,0.155,0.141,0.219,0.224
		l6.372,8.297c0.191,0.249,0.288,0.558,0.274,0.871h0.003v8.623c0,1.48-1.191,2.671-2.671,2.671L47.506,728.578L47.506,728.578z"/>
	<path shape-rendering="auto" image-rendering="auto" color-rendering="auto" color-interpolation="sRGB" style="fill:#6A6B6C;" d="
		M56.002,730.019l-6.665,0.04c-0.378,0.002-0.683,0.264-0.68,0.584c0.001,0.132,0.055,0.259,0.152,0.362l3.399,3.568
		c0.238,0.249,0.669,0.287,0.963,0.086c0.042-0.029,0.079-0.061,0.112-0.098l3.265-3.608c0.23-0.254,0.174-0.619-0.126-0.814
		C56.302,730.06,56.154,730.018,56.002,730.019L56.002,730.019z"/>
	<path id="SVGCleanerId_3" style="fill:#EA6153;" d="M76.395,699.69c0-1.48-1.191-2.671-2.671-2.671h-8.623v0.011
		c-0.355-0.04-0.711,0.063-0.989,0.287l-8.205,6.633c-0.573,0.464-0.662,1.305-0.198,1.878c0.066,0.081,0.141,0.155,0.224,0.219
		l8.297,6.372c0.249,0.191,0.558,0.288,0.871,0.274v0.003h8.623c1.48,0,2.671-1.191,2.671-2.671L76.395,699.69L76.395,699.69z"/>
	<path shape-rendering="auto" image-rendering="auto" color-rendering="auto" color-interpolation="sRGB" style="fill:#6A6B6C;" d="
		M77.836,708.185l0.04-6.665c0.002-0.378,0.264-0.682,0.584-0.68c0.132,0.001,0.259,0.055,0.362,0.152l3.568,3.399
		c0.249,0.238,0.288,0.669,0.086,0.963c-0.029,0.042-0.061,0.079-0.098,0.112l-3.608,3.266c-0.254,0.23-0.619,0.174-0.814-0.126
		C77.877,708.485,77.834,708.337,77.836,708.185L77.836,708.185z"/>
	<path id="SVGCleanerId_4" style="fill:#EA6153;" d="M28.952,699.69c0-1.48,1.191-2.671,2.671-2.671h8.623v0.011
		c0.355-0.04,0.711,0.063,0.989,0.287l8.205,6.633c0.573,0.464,0.662,1.305,0.198,1.878c-0.066,0.081-0.141,0.155-0.224,0.219
		l-8.297,6.372c-0.249,0.191-0.558,0.288-0.871,0.274v0.003h-8.623c-1.48,0-2.671-1.191-2.671-2.671L28.952,699.69L28.952,699.69z"
		/>
	<path shape-rendering="auto" image-rendering="auto" color-rendering="auto" color-interpolation="sRGB" style="fill:#6A6B6C;" d="
		M27.511,708.185l-0.04-6.665c-0.002-0.378-0.264-0.682-0.584-0.68c-0.132,0.001-0.259,0.055-0.362,0.152l-3.568,3.399
		c-0.249,0.238-0.288,0.669-0.086,0.963c0.029,0.042,0.061,0.079,0.098,0.112l3.608,3.266c0.254,0.23,0.619,0.174,0.814-0.126
		C27.47,708.485,27.512,708.337,27.511,708.185L27.511,708.185z"/>
	<path style="fill:#131313;fill-opacity:0;" d="M90.513,704.857c0,20.898-16.941,37.839-37.839,37.839c0,0,0,0,0,0
		c-20.898,0-37.839-16.941-37.839-37.839c0,0,0,0,0,0c0-20.898,16.941-37.839,37.839-37.839c0,0,0,0,0,0
		C73.571,667.017,90.513,683.959,90.513,704.857L90.513,704.857z"/>
	<g>
		<path id="SVGCleanerId_0_1_" style="fill:#262626;" d="M84.387,704.857c0,17.515-14.199,31.714-31.714,31.714h0
			c-17.515,0-31.714-14.199-31.714-31.714l0,0c0-17.515,14.199-31.714,31.714-31.714c0,0,0,0,0,0
			C70.188,673.143,84.387,687.342,84.387,704.857L84.387,704.857z"/>
	</g>
	<g>
		<path id="SVGCleanerId_1_1_" style="fill:#EA6153;" d="M47.506,681.135c-1.48,0-2.671,1.191-2.671,2.671v8.623h0.011
			c-0.04,0.355,0.063,0.711,0.287,0.989l6.633,8.205c0.464,0.573,1.305,0.662,1.878,0.198c0.081-0.066,0.155-0.141,0.219-0.224
			l6.372-8.297c0.191-0.249,0.288-0.558,0.274-0.871h0.003v-8.623c0-1.48-1.191-2.671-2.671-2.671L47.506,681.135L47.506,681.135z"
			/>
	</g>
	<path shape-rendering="auto" image-rendering="auto" color-rendering="auto" color-interpolation="sRGB" style="fill:#D2DCDC;" d="
		M56.002,679.694l-6.665-0.04c-0.378-0.002-0.683-0.264-0.68-0.584c0.001-0.132,0.055-0.259,0.152-0.362l3.399-3.568
		c0.238-0.249,0.669-0.287,0.963-0.086c0.042,0.029,0.079,0.061,0.112,0.098l3.265,3.608c0.23,0.254,0.174,0.619-0.126,0.814
		C56.302,679.653,56.154,679.696,56.002,679.694L56.002,679.694z"/>
	<g>
		<path id="SVGCleanerId_2_1_" style="fill:#EA6153;" d="M47.506,728.578c-1.48,0-2.671-1.191-2.671-2.671v-8.623h0.011
			c-0.04-0.355,0.063-0.711,0.287-0.989l6.633-8.205c0.464-0.573,1.305-0.662,1.878-0.198c0.081,0.066,0.155,0.141,0.219,0.224
			l6.372,8.297c0.191,0.249,0.288,0.558,0.274,0.871h0.003v8.623c0,1.48-1.191,2.671-2.671,2.671L47.506,728.578L47.506,728.578z"/>
	</g>
	<path shape-rendering="auto" image-rendering="auto" color-rendering="auto" color-interpolation="sRGB" style="fill:#D2DCDC;" d="
		M56.002,730.019l-6.665,0.04c-0.378,0.002-0.683,0.264-0.68,0.584c0.001,0.132,0.055,0.259,0.152,0.362l3.399,3.568
		c0.238,0.249,0.669,0.287,0.963,0.086c0.042-0.029,0.079-0.061,0.112-0.098l3.265-3.608c0.23-0.254,0.174-0.619-0.126-0.814
		C56.302,730.06,56.154,730.018,56.002,730.019L56.002,730.019z"/>
	<g>
		<path id="SVGCleanerId_3_1_" style="fill:#EA6153;" d="M76.395,699.69c0-1.48-1.191-2.671-2.671-2.671h-8.623v0.011
			c-0.355-0.04-0.711,0.063-0.989,0.287l-8.205,6.633c-0.573,0.464-0.662,1.305-0.198,1.878c0.066,0.081,0.141,0.155,0.224,0.219
			l8.297,6.372c0.249,0.191,0.558,0.288,0.871,0.274v0.003h8.623c1.48,0,2.671-1.191,2.671-2.671L76.395,699.69L76.395,699.69z"/>
	</g>
	<path shape-rendering="auto" image-rendering="auto" color-rendering="auto" color-interpolation="sRGB" style="fill:#D2DCDC;" d="
		M77.836,708.185l0.04-6.665c0.002-0.378,0.264-0.682,0.584-0.68c0.132,0.001,0.259,0.055,0.362,0.152l3.568,3.399
		c0.249,0.238,0.288,0.669,0.086,0.963c-0.029,0.042-0.061,0.079-0.098,0.112l-3.608,3.266c-0.254,0.23-0.619,0.174-0.814-0.126
		C77.877,708.485,77.834,708.337,77.836,708.185L77.836,708.185z"/>
	<g>
		<path id="SVGCleanerId_4_1_" style="fill:#EA6153;" d="M28.952,699.69c0-1.48,1.191-2.671,2.671-2.671h8.623v0.011
			c0.355-0.04,0.711,0.063,0.989,0.287l8.205,6.633c0.573,0.464,0.662,1.305,0.198,1.878c-0.066,0.081-0.141,0.155-0.224,0.219
			l-8.297,6.372c-0.249,0.191-0.558,0.288-0.871,0.274v0.003h-8.623c-1.48,0-2.671-1.191-2.671-2.671L28.952,699.69L28.952,699.69z"
			/>
	</g>
	<path shape-rendering="auto" image-rendering="auto" color-rendering="auto" color-interpolation="sRGB" style="fill:#D2DCDC;" d="
		M27.511,708.185l-0.04-6.665c-0.002-0.378-0.264-0.682-0.584-0.68c-0.132,0.001-0.259,0.055-0.362,0.152l-3.568,3.399
		c-0.249,0.238-0.288,0.669-0.086,0.963c0.029,0.042,0.061,0.079,0.098,0.112l3.608,3.266c0.254,0.23,0.619,0.174,0.814-0.126
		C27.47,708.485,27.512,708.337,27.511,708.185L27.511,708.185z"/>
	<path style="fill:#201E20;" d="M271.376,704.857c0,20.898-16.941,37.839-37.839,37.839c0,0,0,0,0,0
		c-20.898,0-37.839-16.941-37.839-37.839l0,0c0-20.898,16.941-37.839,37.839-37.839c0,0,0,0,0,0
		C254.435,667.017,271.376,683.959,271.376,704.857L271.376,704.857z"/>
	<path style="fill:#262626;" d="M265.654,704.857c0,17.515-14.199,31.714-31.714,31.714c0,0,0,0,0,0
		c-17.515,0-31.714-14.199-31.714-31.714l0,0c0-17.515,14.199-31.714,31.714-31.714c0,0,0,0,0,0
		C251.455,673.143,265.654,687.342,265.654,704.857L265.654,704.857z"/>
	<g>
		<path style="fill:#D2DCDC;" d="M242.996,685.445c0,5.001-4.054,9.056-9.056,9.056c-5.001,0-9.056-4.054-9.056-9.056
			c0-5.001,4.054-9.056,9.056-9.056C238.942,676.389,242.996,680.443,242.996,685.445z"/>
		<path style="fill:#D2DCDC;" d="M242.996,724.268c0,5.001-4.054,9.056-9.056,9.056c-5.001,0-9.056-4.054-9.056-9.056
			c0-5.001,4.054-9.056,9.056-9.056C238.942,715.213,242.996,719.267,242.996,724.268z"/>
	</g>
	<path style="fill:#EA6153;" d="M253.352,695.801c-5.001,0-9.056,4.054-9.056,9.056s4.054,9.056,9.056,9.056
		s9.056-4.054,9.056-9.056S258.354,695.801,253.352,695.801z"/>
	<path style="fill:#D2DCDC;" d="M214.528,695.801c-5.001,0-9.056,4.054-9.056,9.056c0,5.001,4.054,9.056,9.056,9.056
		c5.001,0,9.056-4.054,9.056-9.056C223.584,699.855,219.53,695.801,214.528,695.801z"/>
	<g shape-rendering="auto" image-rendering="auto" color-rendering="auto" color-interpolation="sRGB">
		<path style="fill:#FFFFFF;" d="M259.114,704.857c0,3.178-2.583,5.762-5.762,5.762s-5.764-2.583-5.764-5.762
			s2.585-5.764,5.764-5.764S259.114,701.679,259.114,704.857z M258.435,704.857c0-2.811-2.271-5.084-5.082-5.084
			s-5.082,2.273-5.082,5.084s2.271,5.082,5.082,5.082S258.435,707.668,258.435,704.857z"/>
		<g>
			<path style="fill:#3B3C3D;" d="M233.899,680.08l-5.324,9.635h0.576h10.15L233.899,680.08z M233.903,681.477l4.236,7.557h-8.412
				L233.903,681.477z"/>
			<path style="fill:#3B3C3D;" d="M209.817,700.104c-0.188,0-0.34,0.152-0.34,0.34v8.826c0,0.188,0.152,0.34,0.34,0.34h9.422
				c0.188,0,0.34-0.152,0.34-0.34v-8.826c0-0.188-0.152-0.34-0.34-0.34H209.817z M210.159,700.783h8.74v8.146h-8.74V700.783z"/>
		</g>
	</g>
	<path style="fill:#3498DB;" d="M228.339,649.975c-4.09,0.003-8.235,1.25-11.955,2.932c-1.904,0.86-4.662,3.19-6.02,4.391
		c4.174,2.852,10.511,4.513,17.215,4.514c7.295,0,14.115-1.966,18.209-5.248c-0.097-0.074-0.187-0.158-0.285-0.23
		c-4.464-3.296-9.89-5.778-15.416-6.281C229.506,649.999,228.923,649.975,228.339,649.975z"/>
	<path style="fill:#EA6153;" d="M57.259,649.647c-1.402,0.035-2.795,0.168-4.162,0.404c-4.781,0.828-9.492,3.072-13.131,6.281
		c-0.652,0.575-1.275,1.179-1.883,1.797c4.719,2.377,10.619,3.677,16.707,3.682c8.207-0.008,15.945-2.366,20.951-6.385
		c-2.037-1.509-4.287-2.991-6.088-3.662C65.754,650.311,61.466,649.542,57.259,649.647z"/>
	<g>
		<g shape-rendering="auto" image-rendering="auto" color-rendering="auto" color-interpolation="sRGB">
			<path style="fill:#3B3C3D;" d="M229.06,718.85l-0.482,0.479l10.244,10.359l0.482-0.479L229.06,718.85z"/>
			<path style="fill:#3B3C3D;" d="M239.054,718.703l-10.707,10.648l0.48,0.482l10.707-10.648L239.054,718.703z"/>
		</g>
		<path style="fill:#2C2A2D;" d="M239.955,910.686c0,0,28.125-31.566,45.935-42.371c2.999-1.819,6.393-3.531,9.9-3.564
			c40.627-0.383,58.942-0.152,94.245-0.792c4.931-0.09,9.937,1.577,14.256,3.96c18.736,10.337,47.519,43.163,47.519,43.163
			s10.189-3.095,14.256-6.336c5.162-4.113,9.657-9.625,11.88-15.84c3.07-8.584,2.014-18.244,1.188-27.323
			c-1.448-15.912-6.072-31.431-10.692-46.727c-6.039-19.995-22.175-58.606-22.175-58.606s-30.331-18.503-45.935-14.652
			c-12.415,3.064-26.927,27.323-26.927,27.323l-50.687,1.188c0,0-16.045-25.358-29.303-28.511
			c-16.692-3.97-49.103,15.444-49.103,15.444s-16.016,39.982-22.175,60.586c-4.31,14.418-8.962,28.966-10.296,43.955
			c-0.668,7.505-0.577,15.247,1.188,22.571c1.591,6.606,3.468,13.85,8.316,18.611C226.154,907.491,239.955,910.686,239.955,910.686
			L239.955,910.686z"/>
	</g>
	<path style="fill:#201E20;" d="M297.98,784.764c0,11.676-9.465,21.141-21.14,21.141h0c-11.676,0-21.141-9.465-21.141-21.141l0,0
		c0-11.676,9.465-21.141,21.14-21.141h0C288.515,763.624,297.98,773.089,297.98,784.764L297.98,784.764z"/>
	<path style="fill:#1A181A;" d="M291.4,785.254c0,7.887-6.394,14.28-14.28,14.28l0,0c-7.887,0-14.28-6.393-14.28-14.28l0,0
		c0-7.887,6.394-14.28,14.28-14.28l0,0C285.006,770.974,291.4,777.367,291.4,785.254L291.4,785.254z"/>
	<path style="fill:#262626;" d="M291.12,784.764c0,7.887-6.394,14.28-14.28,14.28l0,0c-7.887,0-14.28-6.393-14.28-14.28l0,0
		c0-7.887,6.394-14.28,14.28-14.28l0,0C284.726,770.484,291.12,776.877,291.12,784.764L291.12,784.764z"/>
	<path style="fill:#202020;" d="M283.089,775.99c2.84,2.02,4.527,5.289,4.53,8.774c0,5.954-4.826,10.78-10.78,10.78
		c-2.066-0.003-4.087-0.6-5.823-1.719c1.823,1.298,4.005,1.997,6.242,1.999c5.954,0,10.78-4.826,10.78-10.78
		C288.034,781.381,286.17,777.971,283.089,775.99z"/>
	<path style="fill:#6A6B6C;" d="M287.62,784.764c0,5.954-4.826,10.78-10.78,10.78c0,0,0,0,0,0c-5.954,0-10.78-4.826-10.78-10.78l0,0
		c0-5.954,4.826-10.78,10.78-10.78c0,0,0,0,0,0C282.793,773.984,287.62,778.81,287.62,784.764L287.62,784.764z"/>
	<path style="fill:#201E20;" d="M333.785,828.519c0,12.674-10.274,22.947-22.947,22.947s-22.947-10.274-22.947-22.947l0,0
		c0-12.674,10.274-22.947,22.947-22.947l0,0C323.511,805.571,333.785,815.845,333.785,828.519z"/>
	<path style="fill:#181618;" d="M307.747,809.969c-1.507,0-2.719,1.213-2.719,2.719v10.02h-10.022c-1.507,0-2.719,1.213-2.719,2.719
		v7.86c0,1.507,1.213,2.719,2.719,2.719h10.022v10.022c0,1.507,1.213,2.719,2.719,2.719h7.861c1.507,0,2.719-1.213,2.719-2.719
		v-10.022h10.022c1.507,0,2.719-1.213,2.719-2.719v-7.86c0-1.507-1.213-2.719-2.719-2.719h-10.022v-10.02
		c0-1.507-1.213-2.719-2.719-2.719H307.747z"/>
	<path style="fill:#3B3C3D;" d="M306.906,809.128c-1.507,0-2.719,1.213-2.719,2.719v10.02h-10.02c-1.507,0-2.719,1.213-2.719,2.719
		v7.862c0,1.507,1.213,2.719,2.719,2.719h10.02v10.02c0,1.507,1.213,2.719,2.719,2.719h7.862c1.507,0,2.719-1.213,2.719-2.719
		v-10.02h10.02c1.507,0,2.719-1.213,2.719-2.719v-7.862c0-1.507-1.213-2.719-2.719-2.719h-10.02v-10.02
		c0-1.507-1.213-2.719-2.719-2.719H306.906z"/>
	<path style="fill:#81D4EF;" d="M406.342,784.624c0,5.567-4.513,10.08-10.08,10.08s-10.08-4.513-10.08-10.08
		s4.513-10.08,10.08-10.08h0C401.829,774.544,406.342,779.057,406.342,784.624L406.342,784.624z"/>
	<path style="fill:#EA6153;" d="M442.883,784.624c0,5.567-4.513,10.08-10.08,10.08s-10.08-4.513-10.08-10.08
		s4.513-10.08,10.08-10.08h0C438.37,774.544,442.883,779.057,442.883,784.624L442.883,784.624z"/>
	<path style="fill:#FCD116;" d="M424.823,766.984c0,5.567-4.513,10.08-10.08,10.08s-10.08-4.513-10.08-10.08
		s4.513-10.08,10.08-10.08h0C420.31,756.903,424.823,761.417,424.823,766.984L424.823,766.984z"/>
	<path style="fill:#2ECC71;" d="M424.823,804.085c0,5.567-4.513,10.08-10.08,10.08s-10.08-4.513-10.08-10.08
		s4.513-10.08,10.08-10.08h0C420.31,794.004,424.823,798.517,424.823,804.085L424.823,804.085z"/>
	<g>
		<path style="fill:#181818;" d="M332.568,785.464c0,3.286-2.664,5.95-5.95,5.95s-5.95-2.664-5.95-5.95s2.664-5.95,5.95-5.95
			S332.568,782.178,332.568,785.464z"/>
		<path style="fill:#181818;" d="M370.789,785.464c0,3.286-2.664,5.95-5.95,5.95s-5.95-2.664-5.95-5.95s2.664-5.95,5.95-5.95
			S370.789,782.178,370.789,785.464z"/>
	</g>
	<g>
		<path style="fill:#3B3C3D;" d="M330.468,785.464c0,2.126-1.724,3.85-3.85,3.85c0,0,0,0,0,0c-2.126,0-3.85-1.724-3.85-3.85
			s1.724-3.85,3.85-3.85S330.468,783.338,330.468,785.464L330.468,785.464z"/>
		<path style="fill:#3B3C3D;" d="M368.689,785.464c0,2.126-1.724,3.85-3.85,3.85c0,0,0,0,0,0c-2.126,0-3.85-1.724-3.85-3.85l0,0
			c0-2.126,1.724-3.85,3.85-3.85c0,0,0,0,0,0C366.965,781.614,368.689,783.338,368.689,785.464L368.689,785.464z"/>
	</g>
	<path style="fill:#201E20;" d="M400.957,828.519c0,11.676-9.465,21.141-21.14,21.141h0c-11.676,0-21.141-9.465-21.141-21.141l0,0
		c0-11.676,9.465-21.141,21.14-21.141h0C391.492,807.378,400.957,816.843,400.957,828.519L400.957,828.519z"/>
	<path style="fill:#1A181A;" d="M394.377,829.009c0,7.887-6.394,14.28-14.28,14.28l0,0c-7.887,0-14.28-6.393-14.28-14.28l0,0
		c0-7.887,6.394-14.28,14.28-14.28l0,0C387.983,814.728,394.377,821.122,394.377,829.009L394.377,829.009z"/>
	<path style="fill:#262626;" d="M394.097,828.519c0,7.887-6.394,14.28-14.28,14.28l0,0c-7.887,0-14.28-6.393-14.28-14.28l0,0
		c0-7.887,6.394-14.28,14.28-14.28l0,0C387.703,814.238,394.097,820.632,394.097,828.519L394.097,828.519z"/>
	<path style="fill:#202020;" d="M386.066,819.744c2.84,2.02,4.527,5.289,4.53,8.774c0,5.953-4.826,10.78-10.78,10.78
		c-2.066-0.003-4.087-0.6-5.823-1.719c1.823,1.298,4.005,1.997,6.242,1.999c5.954,0,10.78-4.826,10.78-10.78
		C391.011,825.135,389.147,821.725,386.066,819.744L386.066,819.744z"/>
	<path style="fill:#6A6B6C;" d="M390.597,828.519c0,5.954-4.826,10.78-10.78,10.78c0,0,0,0,0,0c-5.954,0-10.78-4.826-10.78-10.78
		l0,0c0-5.954,4.826-10.78,10.78-10.78c0,0,0,0,0,0C385.77,817.738,390.597,822.565,390.597,828.519L390.597,828.519z"/>
	<path shape-rendering="auto" image-rendering="auto" color-rendering="auto" color-interpolation="sRGB" style="fill:#1D1C1A;" d="
		M297.457,730.911c4.899,1.081,17.057,8.387,17.057,8.387l62.961-0.562c0,0,10.171-6.018,14.824-6.99
		c15.327-1.434,42.654,11.301,43.536,13.053l5.293,10.511L400.332,742.3l-26.928,27.323l-50.686,1.188l-29.304-28.51l-42.969,11.679
		l3.808-9.481C255.64,741.045,284.205,728.252,297.457,730.911z"/>
	<path style="fill:#171615;" d="M355.733,755.706c0,5.577-4.521,10.098-10.098,10.098s-10.098-4.521-10.098-10.098
		s4.521-10.098,10.098-10.098S355.733,750.129,355.733,755.706z"/>
	<path style="fill:#FFFFFF;" d="M355.287,755.063c0,5.577-4.521,10.098-10.098,10.098s-10.098-4.521-10.098-10.098
		s4.521-10.098,10.098-10.098S355.287,749.486,355.287,755.063z"/>
	<path style="fill:#C5C5C5;" d="M349.958,746.167c-0.393,0.241-2.618,1.59-4.033,1.953c-0.292,0.075-0.607,0.094-0.904,0.043
		c-1.653-0.284-4.391-1.724-4.742-1.91c-0.568,0.317-1.105,0.688-1.602,1.107l0.033,0.045l4.375,3.449c0,0-2.371,2.504-3.281,3.955
		c-0.754,1.201-1.466,2.485-1.768,3.871c-0.238,1.096,0,3.367,0,3.367s1.127-2.827,2.02-4.039c1.429-1.941,5.219-5.008,5.219-5.008
		s4.109,3.159,5.553,5.26c0.782,1.138,1.571,3.784,1.588,3.84c0.007-0.007,0.013-0.014,0.02-0.021
		c0.026-0.153,0.516-3.06,0.16-4.492c-0.351-1.415-1.379-2.574-2.188-3.787c-0.744-1.116-2.441-3.197-2.441-3.197
		s1.45-1.856,2.441-2.439c0.467-0.275,1.299-0.432,1.643-0.492C351.42,747.082,350.717,746.577,349.958,746.167L349.958,746.167z"/>
</g>
<g>
</g>
<g>
</g>
<g>
</g>
<g>
</g>
<g>
</g>
<g>
</g>
<g>
</g>
<g>
</g>
<g>
</g>
<g>
</g>
<g>
</g>
<g>
</g>
<g>
</g>
<g>
</g>
<g>
</g>
</svg>
