<svg xmlns="http://www.w3.org/2000/svg" xml:space="preserve" viewBox="0 0 512.032 512.032">
  <path fill="#f60" d="M256.8 199.072h191.344v16.384H256.8z"/>
  <path d="M384.48 158.912h127.552v16.384H384.48z"/>
  <path fill="#f60" d="M256.8 118.752h63.776v16.384H256.8z"/>
  <path d="M384.48 118.752h63.776v16.384H384.48z"/>
  <path fill="#f60" d="M193.12 239.232h63.776v16.384H193.12z"/>
  <path d="M320.64 239.232h127.552v16.384H320.64zm89.712 80.32h63.776v16.384h-63.776z"/>
  <path fill="#f60" d="M282.8 319.552h63.776v16.384H282.8z"/>
  <path d="M219.008 279.392h63.776v16.384h-63.776z"/>
  <path fill="#f60" d="M346.576 279.392h63.776v16.384h-63.776z"/>
  <path d="M282.8 359.712h127.552v16.384H282.8z"/>
  <circle cx="109.136" cy="214.288" r="53.84"/>
  <path d="M106.592 393.28 54.576 280.496S0 281.216 0 331.424v61.84s106.96.016 106.592.016zm5.088 0 52.016-112.768s54.576.72 54.576 50.928v61.84H111.68z"/>
  <path fill="#22acdd" d="M109.136 280.496H71.664l37.472 82.944 37.472-82.944z"/>
</svg>
