<?xml version="1.0" encoding="iso-8859-1"?>
<!-- Generator: Adobe Illustrator 19.0.0, SVG Export Plug-In . SVG Version: 6.00 Build 0)  -->
<svg version="1.1" id="Layer_1" xmlns="http://www.w3.org/2000/svg" xmlns:xlink="http://www.w3.org/1999/xlink" x="0px" y="0px"
	 viewBox="0 0 512.032 512.032" style="enable-background:new 0 0 512.032 512.032;" xml:space="preserve">
<rect x="256.8" y="199.072" style="fill:#FF6600;" width="191.344" height="16.384"/>
<rect x="384.48" y="158.912" width="127.552" height="16.384"/>
<rect x="256.8" y="118.752" style="fill:#FF6600;" width="63.776" height="16.384"/>
<rect x="384.48" y="118.752" width="63.776" height="16.384"/>
<rect x="193.12" y="239.232" style="fill:#FF6600;" width="63.776" height="16.384"/>
<rect x="320.64" y="239.232" width="127.552" height="16.384"/>
<rect x="410.352" y="319.552" width="63.776" height="16.384"/>
<rect x="282.8" y="319.552" style="fill:#FF6600;" width="63.776" height="16.384"/>
<rect x="219.008" y="279.392" width="63.776" height="16.384"/>
<rect x="346.576" y="279.392" style="fill:#FF6600;" width="63.776" height="16.384"/>
<rect x="282.8" y="359.712" width="127.552" height="16.384"/>
<circle cx="109.136" cy="214.288" r="53.84"/>
<path d="M106.592,393.28L54.576,280.496c0,0-54.576,0.72-54.576,50.928s0,61.84,0,61.84S106.96,393.28,106.592,393.28z"/>
<path d="M111.68,393.28l52.016-112.768c0,0,54.576,0.72,54.576,50.928s0,61.84,0,61.84S111.312,393.28,111.68,393.28z"/>
<polygon style="fill:#22ACDD;" points="109.136,280.496 71.664,280.496 109.136,363.44 146.608,280.496 "/>
<g>
</g>
<g>
</g>
<g>
</g>
<g>
</g>
<g>
</g>
<g>
</g>
<g>
</g>
<g>
</g>
<g>
</g>
<g>
</g>
<g>
</g>
<g>
</g>
<g>
</g>
<g>
</g>
<g>
</g>
</svg>
