<svg xmlns="http://www.w3.org/2000/svg" xml:space="preserve" viewBox="0 0 360 360">
  <path fill="#cdcdd0" d="M240 50v30h90v200h-90v30h120V50z"/>
  <path fill="#ebebec" d="M120 50h120v30H120zm31.75 230H120v30h120v-30z"/>
  <path fill="#cdcdd0" d="M30 280V80h90V50H0v260h120v-30z"/>
  <path fill="#64c37d" d="M135 165c0-5.247.907-10.28 2.558-14.963L30 111.836V280h90l27.335-78.899C140.337 189.699 135 177.054 135 165zm45 75s-4.527-4.026-10.707-10.635L151.75 280H330v-61.614l-107.505-38.182C213.037 210.631 180 240 180 240z"/>
  <path fill="#99eff2" d="M147.335 201.101 120 280h31.75l17.543-50.635c-6.598-7.056-15.079-17.057-21.958-28.264z"/>
  <path fill="#78b9eb" d="m30 80 128.308 45.571C164.742 122.023 172.134 120 180 120c18.868 0 35.015 11.618 41.701 28.086L330 186.551V80H30z"/>
  <path fill="#ffda44" d="M158.308 125.571 30 80v31.836l107.558 38.201c3.693-10.476 11.148-19.173 20.75-24.466zM225 165c0 5.01-.925 10.121-2.505 15.204L330 218.386v-31.835l-108.299-38.464C223.822 153.31 225 159.016 225 165z"/>
  <path fill="#ff5023" d="M137.558 150.037C135.907 154.72 135 159.753 135 165c0 12.054 5.337 24.699 12.335 36.101 6.879 11.208 15.36 21.208 21.958 28.265C175.473 235.974 180 240 180 240v-60c-8.284 0-15-6.716-15-15s6.716-15 15-15v-30c-7.866 0-15.258 2.023-21.692 5.571-9.602 5.293-17.057 13.99-20.75 24.466z"/>
  <path fill="#bf3c1a" d="M195 165c0 8.284-6.716 15-15 15v60s33.037-29.369 42.495-59.796C224.075 175.121 225 170.01 225 165c0-5.984-1.178-11.69-3.299-16.914C215.015 131.618 198.868 120 180 120v30c8.284 0 15 6.716 15 15z"/>
  <circle cx="180" cy="165" r="15" fill="#fff"/>
</svg>
