<svg xmlns="http://www.w3.org/2000/svg" xml:space="preserve" viewBox="0 0 1000 1000">
  <path d="M320.33 165.17v155.16H10V353h310.34v294H10v32.66h310.34V990H353V679.66h294V990h32.66V679.66H990V647H679.67V353H990v-32.66H679.67V10H647v310.33H353V10h-32.66v155.17zM647 500v147H353V353h294v147z"/>
  <path d="M473.66 372.4c-36.55 7.96-72.89 36.55-89.63 70.64-19.19 39-19.19 74.93 0 113.93 12.05 24.5 34.5 46.96 59 59 39 19.19 74.93 19.19 113.93 0 24.5-12.04 46.96-34.5 59-59 19.19-39 19.19-74.93 0-113.93-12.04-24.5-34.5-46.96-59-59-28.17-14.09-54.92-17.77-83.3-11.64zm51.86 32.66C569.01 416.5 598 454.27 598 500c0 55.33-42.67 98-98 98s-98-42.67-98-98c0-65.13 60.23-111.27 123.52-94.94zM800.33 45.73c-36.54 7.96-72.89 36.55-89.63 70.64-9.39 18.99-14.7 39.4-14.7 56.96 0 46.35 30.83 94.94 73.7 115.97 39 19.19 74.93 19.19 113.93 0 24.5-12.05 46.96-34.5 59-59 19.19-39 19.19-74.93 0-113.92-12.04-24.5-34.5-46.96-59-59-28.18-14.1-54.92-17.78-83.3-11.65zm51.86 32.67c43.49 11.43 72.48 49.2 72.48 94.94 0 55.33-42.67 98-98 98s-98-42.67-98-98c0-65.14 60.23-111.28 123.52-94.94zM59 386.69l-11.23 11.23 51.04 51.04L149.85 500l-51.04 51.04-51.04 51.04 11.84 11.64 11.64 11.84 51.04-51.04 51.04-51.04 51.04 51.04 51.04 51.04 11.64-11.84 11.85-11.64-51.04-51.04L196.81 500l51.04-51.04 51.04-51.04-11.84-11.64-11.64-11.84-51.04 51.04-51.04 51.04-50.63-50.63c-27.77-27.77-51.04-50.43-51.45-50.43-.61 0-6.13 5.1-12.25 11.23zm88 312.37c-36.55 7.96-72.89 36.55-89.63 70.64-9.39 18.99-14.7 39.41-14.7 56.96 0 46.35 30.83 94.94 73.7 115.97 39 19.19 74.93 19.19 113.92 0 24.5-12.04 46.96-34.5 59-59 19.19-39 19.19-74.93 0-113.93-12.05-24.5-34.5-46.96-59-59-28.17-14.09-54.92-17.76-83.29-11.64zm51.85 32.67c43.49 11.43 72.48 49.2 72.48 94.94 0 55.33-42.67 98-98 98s-98-42.67-98-98c0-65.13 60.23-111.27 123.52-94.94zm513.48-18.38-11.23 11.23 51.04 51.04 51.04 51.04-51.04 51.04-51.04 51.05 11.84 11.64 11.64 11.84 51.04-51.04 51.04-51.04 51.04 51.04 51.04 51.04 11.64-11.84 11.84-11.64-51.04-51.04-51.04-51.04 51.04-51.04 51.04-51.04-11.84-11.64-11.63-11.85-51.04 51.04-51.04 51.04-50.63-50.63c-27.77-27.77-51.04-50.43-51.45-50.43-.62 0-6.13 5.11-12.26 11.23z"/>
</svg>
