<svg xmlns="http://www.w3.org/2000/svg" xml:space="preserve" viewBox="0 0 297 297">
  <circle cx="148.5" cy="148.5" r="148.5" fill="#82d9c8"/>
  <path fill="#12967d" d="M297 148.5c0-10.797-1.163-21.322-3.351-31.464l-32.083-32.083L35.005 211.518l82.159 82.159c10.103 2.17 20.584 3.323 31.336 3.323 82.014 0 148.5-66.486 148.5-148.5z"/>
  <path fill="#252a2d" d="M115.5 212.75h66v20h-66z"/>
  <path fill="#191c1e" d="M148.167 212.75H181.5v20h-33.333z"/>
  <path fill="#32373b" d="M255.667 214.5H41.333c-4.602 0-8.333-3.731-8.333-8.333V90.834c0-4.602 3.731-8.334 8.333-8.334h214.333c4.602 0 8.333 3.731 8.333 8.334v115.333c.001 4.602-3.73 8.333-8.332 8.333z"/>
  <path fill="#282d30" d="M255.667 82.5h-107.5v132h107.5c4.602 0 8.333-3.731 8.333-8.333V90.833c0-4.602-3.731-8.333-8.333-8.333z"/>
  <path fill="#707b82" d="M49.5 99h198v99h-198z"/>
  <path fill="#32373b" d="M90.75 247.5h115.5c4.556 0 8.25-3.694 8.25-8.25s-3.694-8.25-8.25-8.25H90.75c-4.556 0-8.25 3.694-8.25 8.25s3.694 8.25 8.25 8.25z"/>
  <path fill="#616b70" d="M148.167 99H247.5v99h-99.333z"/>
  <path fill="#282d30" d="M206.25 231h-58.083v16.5h58.083c4.556 0 8.25-3.694 8.25-8.25s-3.694-8.25-8.25-8.25z"/>
</svg>
