<svg xmlns="http://www.w3.org/2000/svg" preserveAspectRatio="xMidYMid" viewBox="0 0 256 256">
  <defs>
    <linearGradient id="a" x1="49.9999997%" x2="49.9999997%" y1=".00244053%" y2="99.999641%">
      <stop offset="0%" stop-color="#FFF"/>
      <stop offset="100%" stop-color="#FFF" stop-opacity="0"/>
    </linearGradient>
  </defs>
  <path fill="#52218A" d="M36.9866667 200.406215c-3.0586432 2.613531-7.3275929 3.283777-11.04 1.733334L6.56 194.006215c-3.95338407-1.649103-6.53677158-5.503181-6.56-9.786666V70.4595487c.02322842-4.2834854 2.60661593-8.1375635 6.56-9.7866666l19.3866667-8c3.7124071-1.5504431 7.9813568-.8801974 11.04 1.7333333l4.3466666 3.6c-1.7972466-1.2920313-4.1669129-1.4680458-6.135323-.4557207-1.96841 1.0123252-3.2035882 3.0422598-3.1980103 5.2557207V191.872882c-.0055779 2.213461 1.2296003 4.243396 3.1980103 5.255721 1.9684101 1.012325 4.3380764.83631 6.135323-.455721l-4.3466666 3.733333Z"/>
  <path fill="#6C33AF" d="M6.56 194.006215c-3.95338407-1.649103-6.53677158-5.503181-6.56-9.786666v-.88c.0268934 2.519037 1.58492217 4.767845 3.9339112 5.678078 2.34898903.910234 5.01550237.298436 6.7327555-1.544745L176 4.67288206c4.797767-4.77394228 12.080373-6.01262586 18.186667-3.09333333l52.746666 25.38666667c5.544442 2.6658908 9.06933 8.2746102 9.066667 14.4266667v.6133333c-.003372-3.9035512-2.254422-7.456172-5.782675-9.1262495-3.528252-1.6700774-7.702834-1.158992-10.723992 1.3129162L41.3333333 196.672882l-4.3466666 3.733333c-3.0586432 2.613531-7.3275929 3.283777-11.04 1.733334L6.56 194.006215Z"/>
  <path fill="#854CC7" d="M6.56 60.6728821C2.60661593 62.3219852.02322842 66.1760633 0 70.4595487v.88c.0268934-2.5190376 1.58492217-4.7678454 3.9339112-5.6780786 2.34898903-.9102332 5.01550237-.2984356 6.7327555 1.5447453L176 250.006215c4.797767 4.773943 12.080373 6.012626 18.186667 3.093334l52.746666-25.386667c5.544442-2.665891 9.06933-8.27461 9.066667-14.426667v-.613333c-.003372 3.903551-2.254422 7.456172-5.782675 9.12625-3.528252 1.670077-7.702834 1.158992-10.723992-1.312917L41.3333333 58.0062154l-4.3466666-3.7333333c-3.085648-2.56847-7.3521387-3.186802-11.04-1.6l-19.3866667 8Z"/>
  <path fill="#B179F1" d="M194.186667 253.099549c-6.106294 2.919292-13.3889 1.680609-18.186667-3.093334 2.687118 2.667775 6.713996 3.45981 10.211298 2.00843 3.497302-1.45138 5.780107-4.861934 5.788702-8.64843V11.3662154c.012965-3.79620144-2.261931-7.22648123-5.764062-8.69153919-3.50213-1.46505796-7.541936-.67642835-10.235938 1.99820585 4.797767-4.77394228 12.080373-6.01262586 18.186667-3.09333333l52.746666 25.35999997c5.544442 2.6658908 9.06933 8.2746103 9.066667 14.4266667V213.312882c.002663 6.152056-3.522225 11.760776-9.066667 14.426667l-52.746666 25.36Z"/>
  <path fill="url(#a)" fill-opacity=".25" d="M183.706667 254.272882c3.525552.804419 7.219632.390832 10.48-1.173333l52.746666-25.36c5.544442-2.665891 9.06933-8.274611 9.066667-14.426667V41.3662154c.002663-6.1520564-3.522225-11.7607759-9.066667-14.4266667L194.186667 1.57954873C190.454554-.21445583 186.172257-.49165807 182.24.80621539c-2.351561.78786373-4.487781 2.11158981-6.24 3.86666667L90.9866667 98.6995487 41.3333333 58.0062154l-4.3466666-3.7333333c-2.6533602-2.2686367-6.2489255-3.0953179-9.6266667-2.2133334a6.80000003 6.80000003 0 0 0-1.4133333.48L6.56 60.6728821C2.86046907 62.2004243.32743433 65.670476 0 69.6595487V185.019549c.32743433 3.989072 2.86046907 7.459124 6.56 8.986666l19.3866667 8c.4520704.211377.9260361.372347 1.4133333.48 3.3777412.881985 6.9733065.055304 9.6266667-2.213333l4.3466666-3.6 49.6533334-40.693333L176 250.006215c2.119066 2.115298 4.789161 3.593551 7.706667 4.266667ZM192 73.1528821l-66.106667 54.1866669L192 181.526215V73.1528821ZM32 90.7262154l33.0933333 36.6133336L32 163.952882V90.7262154Z"/>
</svg>
